<?xml version="1.0" encoding="UTF-8"?>
<svg version="1.1" viewBox="0 0 800 800" width="800" height="800" xmlns="http://www.w3.org/2000/svg">
<path transform="translate(399)" d="m0 0 3 1 13 23 14 24 16 28 105 182 17 29 6 10 6 11 8 14 10 17 150 260 2 4h-697l2-6 16-27 9-16 14-24 165-286 14-24 120-208zm-17 160-11 22-11 23-10 21-8 16-11 23-8 16-19 39-12 25-10 21-8 16-19 39-12 25-19 39-17 35-8 17v1h12l234-17 84-6 85-6 5-1-7-11-8-12-19-28-15-22-8-12-15-22-8-12-15-22-8-12-9-13-16-24-7-10-17-25-8-12-11-16-19-28-8-12-15-22-19-28-3-5z" fill="#FADA21"/>
<path transform="translate(336,8)" d="m0 0 1 3-45 78-7 12-26 11-23 11-18 10-14 9-13 9-17 13-13 11-11 10h-2l-1 3-7 6-7 8-7 7-9 11-10 12-13 18-12 19-9 16-8 15-9 20-10 26-7 23-5 22-3 14-4 30-1 16v46l2 24 2 14v7l-1 2h-2l-11-33-7-28-4-23-3-27v-62l4-33 5-25 7-27 7-21 11-27 8-17 13-23 10-16 12-17 11-14 11-13 11-12 19-19 8-7 13-11 19-14 20-13 17-10 17-9 20-9 26-10 31-9 27-6z" fill="#534565"/>
<path transform="translate(464,9)" d="m0 0h7l27 6 22 6 28 10 21 9 17 9 12 6 19 12 12 8 19 14 14 12 12 11 8 7 7 8 9 9 9 11 13 16 14 20 11 18 6 10 8 16 12 27 10 28 7 25 5 24 3 18 2 21 1 17v30l-3 37-5 29-6 26-11 33-2 2-6-9-45-78-2-3 1-14 2-25v-48l-2-28-4-28-6-28-9-30-8-21-10-23-10-19-13-22-16-23-13-16-9-11-16-17-10-10-8-7-14-12-19-14-15-10-20-12-23-12-30-13z" fill="#534565"/>
<path transform="translate(91,653)" d="m0 0h103l11 9 14 11 27 18 23 13 27 13 23 9 18 6 30 8 14 3 27 4 25 2h42l33-3 24-4 25-6 20-6 18-6 30-13 20-10 20-12 18-12 11-8v3l-25 25h-2v2l-11 9-12 10-18 13-17 11-23 13-29 14-17 7-31 10-24 6-22 4-22 3-15 1h-52l-23-2-30-5-26-6-26-8-28-11-29-14-24-14-15-10-16-12-14-11-12-11-10-9-14-14-9-11-7-8z" fill="#534565"/>
</svg>
